<svg xmlns="http://www.w3.org/2000/svg" width="24" height="24" viewBox="0 0 24 24" style="fill: rgba(0, 0, 0, 1); transform: ; msFilter:;"><path d="M22 7.999a1 1 0 0 0-.516-.874l-9.022-5a1.003 1.003 0 0 0-.968 0l-8.978 4.96a1 1 0 0 0-.003 1.748l9.022 5.04a.995.995 0 0 0 .973.001l8.978-5A1 1 0 0 0 22 7.999zm-9.977 3.855L5.06 7.965l6.917-3.822 6.964 3.859-6.918 3.852z"></path><path d="M20.515 11.126 12 15.856l-8.515-4.73-.971 1.748 9 5a1 1 0 0 0 .971 0l9-5-.97-1.748z"></path><path d="M20.515 15.126 12 19.856l-8.515-4.73-.971 1.748 9 5a1 1 0 0 0 .971 0l9-5-.97-1.748z"></path></svg>42.242879143198664C103.41431057327972,76.34704239035025,93.79494320519305,170.9812938413882,81.28167332365135,250.07896920659033C70.17666984294237,320.27484674793965,64.84698225790005,396.69656628748305,111.28512138212992,450.4950937839243C156.20124167950087,502.5303643271138,231.32542653798444,500.4755392045468,300,503.46388370962813"></path></svg>