<svg xmlns="http://www.w3.org/2000/svg" width="24" height="24" viewBox="0 0 24 24" style="fill: #ffa76e;"><style>path {transition: fill 0.3s ease;}svg:hover path {fill: #fff;}</style><path d="M19.903 8.586a.997.997 0 0 0-.196-.293l-6-6a.997.997 0 0 0-.293-.196c-.03-.014-.062-.022-.094-.033a.991.991 0 0 0-.259-.051C13.04 2.011 13.021 2 13 2H6c-1.103 0-2 .897-2 2v16c0 1.103.897 2 2 2h12c1.103 0 2-.897 2-2V9c0-.021-.011-.04-.013-.062a.952.952 0 0 0-.051-.259c-.01-.032-.019-.063-.033-.093zM16.586 8H14V5.414L16.586 8zM6 20V4h6v5a1 1 0 0 0 1 1h5l.002 10H6z"></path><path d="M8 12h8v2H8zm0 4h8v2H8zm0-8h2v2H8z"></path></svg>2974,130.76875717737553C312.15926192815925,99.40240125094834,248.97055460311594,18.661163978235184,179.8680185752513,50.54337015887873C110.5421016452524,82.52863877960104,119.82277516462835,180.83849132639028,109.12597500060166,256.43424936330496C100.08760227029461,320.3096726198365,92.17705696193138,384.0621239912766,124.79988738764834,439.7174275375508C164.83382741302287,508.01625554203684,220.96474134820875,577.5009287672846,300,582.0697525312426"></path>
</svg>